<svg xmlns="http://www.w3.org/2000/svg" viewBox="0 0 72 88.05"><defs><style>.cls-1{fill:#e9dd83;}</style></defs><title>Kerala Blasters</title><g id="Layer_2" data-name="Layer 2"><g id="Layer_1-2" data-name="Layer 1"><path class="cls-1" d="M72,34.15c0,.64,0,1.33-.06,2,0,.22,0,.43,0,.65,0,1.08-.17,1.28-1.29,1.38a27.15,27.15,0,0,0-5.31.84c-.7.21-1.6.58-2.44.78a3.1,3.1,0,0,1-1.46.06,1.36,1.36,0,0,1-.76-.51c-.76-1-.74-2.63-1.27-3.61-.39,1.26-.79,2.49-1.16,3.71a38,38,0,0,0-1.72,7.8c0,.3-.05.6-.07.91a29.55,29.55,0,0,0,1,7.2c.41,2,.74,4,1.06,6l0,.17c.66,4.19.49,8.46,1,12.65a54.73,54.73,0,0,0,.89,6.38c.24,1,.45,2.08.62,3.13.08.5.77,2.13.63,2.51,0,.05.07.16.09.2-1.55-.21-3.84.41-5.37.73a41.62,41.62,0,0,1-7,.85c-2.68.12-5.37-.1-8.09-.1A49.17,49.17,0,0,1,36,88a49.19,49.19,0,0,1-5.24-.1c-2.72,0-5.41.22-8.09.1a41.66,41.66,0,0,1-7-.85c-1.53-.32-3.82-.94-5.36-.73,0,0,.11-.14.09-.2-.14-.38.55-2,.63-2.51.17-1.06.37-2.09.62-3.13a54,54,0,0,0,.89-6.38c.37-3.2.36-6.45.63-9.68.08-1,.19-2,.35-3l.07-.42h0c.09-.56.18-1.13.27-1.69.22-1.35.46-2.7.74-4.07.22-1.06.47-2.17.66-3.29a17.34,17.34,0,0,0,.31-3.91c0-.7-.1-1.37-.2-2a41.51,41.51,0,0,0-1.59-6.65c-.16-.52-.32-1-.49-1.57-.22-.71-.45-1.43-.67-2.16a17.62,17.62,0,0,0-.76,2.55,3.63,3.63,0,0,1-.51,1.06c-.53.7-1.45.66-2.42.41-.78-.2-1.59-.54-2.24-.73a27.15,27.15,0,0,0-5.31-.84C.3,38.09.17,37.89.13,36.81c0-.28,0-.57,0-.86,0-.61,0-1.22-.06-1.8C0,32.81,0,31.45,0,30.1c0-.56,0-1.12,0-1.68,0-3.73.64-7,1-10.6A13.13,13.13,0,0,1,6.11,8.58c.47-.35.93-.72,1.39-1.09L8,7.13A9.49,9.49,0,0,1,10.63,5.6C12.8,4.85,15,4.16,17.15,3.27,19,2.48,21,1.88,22.86,1c.63-.3,1.4-.62,2.13-1,1.16,7.44,11.25,9.24,17.18,6C44.62,4.72,46,2.5,47.31.15c.64.32,1.29.6,1.84.86C51,1.88,53,2.48,54.85,3.27,57,4.16,59.2,4.85,61.37,5.6a8.77,8.77,0,0,1,2.25,1.23c.18.12.36.26.53.4.58.44,1.15.92,1.74,1.35A13.14,13.14,0,0,1,71,17.82c.33,3.59,1,6.88,1,10.6C72,30.33,72,32.26,72,34.15Z"/></g></g></svg>