<?xml version="1.0" standalone="no"?>
<!DOCTYPE svg PUBLIC "-//W3C//DTD SVG 20010904//EN"
 "http://www.w3.org/TR/2001/REC-SVG-20010904/DTD/svg10.dtd">
<svg version="1.0" xmlns="http://www.w3.org/2000/svg"
 width="1280.000000pt" height="1280.000000pt" viewBox="0 0 1280.000000 1280.000000"
 preserveAspectRatio="xMidYMid meet">
<metadata>
Created by potrace 1.15, written by Peter Selinger 2001-2017
</metadata>
<g transform="translate(0.000000,1280.000000) scale(0.100000,-0.100000)"
fill="#000000" stroke="none">
<path d="M12460 4723 c-6 -27 -14 -59 -16 -73 -3 -14 -9 -34 -14 -45 -5 -11
-27 -78 -51 -150 -96 -296 -218 -591 -370 -890 -227 -449 -511 -874 -829
-1246 -149 -174 -402 -433 -580 -594 -594 -537 -1304 -964 -2075 -1247 -163
-59 -522 -168 -660 -199 -22 -5 -67 -15 -100 -23 l-60 -14 63 -1 c35 -1 61 3
58 8 -6 9 40 21 85 21 16 0 29 5 29 10 0 6 23 10 50 10 36 0 52 4 56 15 4 11
21 15 55 15 27 0 49 4 49 10 0 5 18 13 40 16 22 4 40 10 40 15 0 5 18 9 40 9
29 0 40 4 40 15 0 10 10 15 29 15 16 0 42 7 57 15 16 8 39 15 52 15 12 0 22 5
22 10 0 6 18 10 40 10 29 0 40 4 40 15 0 11 11 15 40 15 22 0 40 4 40 9 0 5
11 12 25 15 14 4 25 11 25 16 0 6 18 10 40 10 29 0 40 4 40 15 0 10 10 15 30
15 17 0 30 4 30 9 0 5 18 11 40 15 23 4 38 11 35 16 -4 6 7 10 24 10 21 0 31
5 31 15 0 9 9 15 25 15 14 0 25 5 25 10 0 6 13 10 29 10 16 0 36 7 45 15 8 8
23 15 34 15 11 0 22 7 26 15 3 8 17 15 31 15 14 0 25 5 25 10 0 6 6 10 14 10
8 0 22 7 30 16 9 8 25 16 36 17 11 1 22 7 24 14 3 7 17 13 31 13 14 0 25 4 25
9 0 5 11 12 25 15 14 4 23 11 20 16 -3 6 3 10 14 10 12 0 21 7 21 15 0 9 9 15
25 15 14 0 25 4 25 9 0 5 11 12 25 15 14 4 25 11 25 16 0 6 9 10 20 10 12 0
32 12 45 26 13 14 33 26 44 27 11 1 23 7 25 14 3 7 17 13 31 13 16 0 25 6 25
15 0 8 7 15 16 15 8 0 12 4 9 10 -3 6 5 10 19 10 14 0 29 7 34 15 4 9 18 17
30 18 12 1 22 7 22 14 0 7 7 13 15 13 8 0 15 5 15 10 0 6 11 10 25 10 14 0 25
5 25 11 0 5 -5 7 -12 3 -7 -4 -8 -3 -4 4 4 7 16 12 27 12 10 0 19 5 19 11 0
19 28 39 55 39 20 0 26 4 21 15 -3 9 0 15 9 15 8 0 15 3 15 8 0 7 30 25 63 38
9 3 17 13 17 20 0 8 7 14 15 14 8 0 15 4 15 9 0 5 11 12 25 15 14 4 25 11 25
16 0 6 7 10 15 10 8 0 15 7 15 15 0 8 7 15 15 15 8 0 15 4 15 10 0 5 11 12 25
16 14 3 23 10 20 14 -3 4 5 10 16 13 12 3 18 10 14 16 -3 6 1 11 9 11 9 0 16
7 16 16 0 10 6 14 15 10 9 -3 15 0 15 9 0 9 10 15 25 15 16 0 25 6 25 15 0 8
7 15 15 15 8 0 15 5 15 11 0 14 25 39 39 39 6 0 11 7 11 15 0 8 7 15 15 15 8
0 15 7 15 16 0 8 4 13 9 9 6 -3 14 2 19 10 4 9 18 17 30 18 12 1 22 5 22 9 0
14 33 47 42 42 4 -3 8 2 8 10 0 9 7 16 15 16 8 0 15 5 15 10 0 14 40 57 41 44
0 -5 4 1 10 14 5 13 13 20 19 17 5 -3 10 -1 10 5 0 14 25 40 38 40 5 0 12 9
15 21 3 12 10 18 16 14 6 -3 11 -1 11 5 0 14 25 40 39 40 6 0 11 7 11 15 0 8
7 15 16 15 8 0 13 4 10 8 -6 9 29 42 44 42 6 0 10 7 10 15 0 8 7 15 16 15 8 0
13 4 10 8 -6 10 29 42 45 42 7 0 7 6 -2 17 -10 11 -10 14 -1 9 6 -4 12 -2 12
4 0 6 11 21 25 34 14 13 25 28 25 35 0 6 7 11 15 11 8 0 15 9 15 20 0 14 5 18
17 13 11 -4 14 -3 9 5 -4 7 -1 12 8 12 9 0 16 7 16 15 0 8 7 15 15 15 9 0 15
9 15 25 0 16 6 25 16 25 8 0 12 5 9 10 -3 6 1 13 9 16 9 3 16 12 16 20 0 8 7
14 15 14 8 0 15 7 15 16 0 9 5 12 12 8 6 -4 8 -3 5 3 -4 5 3 19 13 31 11 12
20 26 20 32 0 5 7 10 15 10 8 0 15 7 15 15 0 8 4 15 9 15 5 0 12 11 15 25 4
14 11 25 16 25 6 0 10 7 10 15 0 8 7 15 15 15 8 0 15 9 15 21 0 11 4 18 8 15
5 -3 18 14 30 37 12 23 25 40 29 37 4 -3 9 7 11 23 2 15 8 25 13 22 5 -4 9 1
9 10 0 8 7 18 15 21 8 4 15 15 15 25 0 11 7 22 15 25 8 4 15 12 15 20 0 7 11
25 25 40 14 15 25 33 25 40 0 8 6 13 12 12 7 -2 14 7 16 20 2 12 8 22 13 22 5
0 9 6 9 14 0 8 7 16 15 20 8 3 15 12 15 20 0 16 29 73 48 94 6 7 12 20 12 28
0 8 5 14 10 14 6 0 10 7 10 15 0 8 4 15 10 15 5 0 12 11 16 25 3 14 10 25 15
25 5 0 9 11 9 25 0 16 6 25 15 25 10 0 15 10 15 30 0 18 5 30 13 30 7 0 14 10
14 22 1 13 7 24 13 26 5 2 10 10 10 18 0 8 7 14 15 14 9 0 15 9 15 25 0 14 4
25 10 25 5 0 12 11 16 25 3 14 10 25 15 25 5 0 9 18 9 40 0 29 4 40 15 40 10
0 15 10 15 30 0 17 4 30 10 30 5 0 12 11 16 25 3 14 10 25 15 25 5 0 9 11 9
25 0 16 6 25 15 25 10 0 15 10 15 31 0 17 4 28 10 24 5 -3 12 12 16 35 4 22
10 40 15 40 5 0 9 14 9 30 0 20 5 30 15 30 11 0 15 11 15 40 0 22 4 40 9 40 5
0 12 11 15 25 4 14 11 25 16 25 6 0 10 18 10 40 0 29 4 40 15 40 11 0 15 11
15 40 0 22 4 40 9 40 5 0 11 18 15 40 3 22 11 40 16 40 6 0 10 18 10 40 0 29
4 40 15 40 12 0 15 13 15 56 0 34 4 53 10 49 6 -3 10 4 10 17 0 36 11 68 21
62 5 -3 9 18 9 45 0 28 -2 51 -4 51 -2 0 -10 -21 -16 -47z"/>
</g>
</svg>
