<?xml version="1.0" encoding="iso-8859-1"?>
<!-- Generator: Adobe Illustrator 19.0.0, SVG Export Plug-In . SVG Version: 6.00 Build 0)  -->
<svg version="1.1" id="Capa_1" xmlns="http://www.w3.org/2000/svg" xmlns:xlink="http://www.w3.org/1999/xlink" x="0px" y="0px"
	 viewBox="0 0 512 512" style="enable-background:new 0 0 512 512;" xml:space="preserve">
<g>
	<path style="fill:#FFDAAE;" d="M356.001,110V10H155.998v100c0,11.003,9,19.999,20.001,19.999h160
		C347,129.999,356.001,121.003,356.001,110z"/>
	<path style="fill:#54BA9D;" d="M336,129.999H176.001c-11.001,0-20.001-8.996-20.001-19.999V10h-60
		c-11,0-19.999,9.001-19.999,19.999V256h119.999c0-33.134,26.865-59.997,60.002-59.997C289.137,196.003,316,222.866,316,256h120
		V29.999C436,19.001,427.001,10,416,10h-59.999v39.999V110C356.001,121.003,347,129.999,336,129.999z"/>
	<g>
		<path style="fill:#FFDAAE;" d="M316,256c0-33.134-26.863-59.997-59.999-59.997c-33.137,0-60.002,26.863-60.002,59.997H316z"/>
		<path style="fill:#FFDAAE;" d="M316,256H195.998c0,33.138,26.865,60.002,60.002,60.002C289.137,316.002,316,289.138,316,256z"/>
	</g>
	<path style="fill:#54BA9D;" d="M316,256c0,33.138-26.863,60.002-59.999,60.002c-33.137,0-60.002-26.864-60.002-60.002H76.001
		v226.001c0,11.003,8.999,19.999,19.999,19.999h60v-39.998V402c0-10.998,9-19.999,20.001-19.999H336
		c11.001,0,20.002,9.001,20.002,19.999v100H416c11.001,0,19.999-8.996,19.999-19.999V256H316z"/>
	<path style="fill:#FFDAAE;" d="M336,382.001H176.001c-11.001,0-20.001,9.001-20.001,19.999v60.002V502h200.002V402
		C356.001,391.002,347,382.001,336,382.001z"/>
</g>
<g>
	<path style="fill:#000001;" d="M416,0H95.999c-16.54,0-29.998,13.457-29.998,29.999v452.002c0,16.542,13.458,29.999,29.999,29.999
		h320c16.543,0,30-13.457,30-29.999V29.999C446,13.457,432.543,0,416,0z M346.001,39.999h-21.035c-5.523,0-10,4.478-10,10
		s4.477,10,10,10h21.035V110c0,5.514-4.486,9.999-10.002,9.999H176.001c-5.515,0-10.001-4.485-10.001-9.999V20h180.002v19.999
		H346.001z M95.999,20h50v90c0,16.542,13.458,29.999,30.001,29.999h160c16.543,0,30.002-13.457,30.002-29.999V20H416
		c5.514,0,9.999,4.485,9.999,9.999V246H325.275c-4.869-33.877-34.072-60.001-69.273-60.001c-35.202,0-64.406,26.124-69.274,60.001
		H86.001V29.999C86.001,24.485,90.486,20,95.999,20z M207.007,246c4.646-22.795,24.848-40.001,48.994-40.001
		s44.348,17.206,48.992,40.001H207.007z M304.993,266c-4.645,22.796-24.847,40.002-48.992,40.002
		c-24.146,0-44.349-17.206-48.994-40.002H304.993z M165.998,472.002h21.033c5.523,0,10-4.478,10-10c0-5.523-4.477-10-10-10h-21.033
		V402c0-5.514,4.486-9.999,10.001-9.999h160c5.516,0,10.002,4.485,10.002,9.999v90H165.998V472.002z M416,492h-49.999v-90
		c0-16.542-13.459-29.999-30.002-29.999H176.001c-16.543,0-30.001,13.457-30.001,29.999v90h-50c-5.514,0-9.999-4.485-9.999-9.999
		V266h100.727c4.868,33.878,34.071,60.002,69.274,60.002c35.201,0,64.404-26.124,69.273-60.002H426v216.001
		C426,487.515,421.514,492,416,492z"/>
	<path style="fill:#000001;" d="M216.001,452.006h-0.236c-5.523,0-10,4.478-10,10c0,5.523,4.477,10,10,10h0.236
		c5.522,0,10-4.477,10-10S221.523,452.006,216.001,452.006z"/>
	<path style="fill:#000001;" d="M296,59.999h0.236c5.522,0,10-4.478,10-10s-4.478-10-10-10H296c-5.523,0-10,4.478-10,10
		S290.476,59.999,296,59.999z"/>
</g>
<g>
</g>
<g>
</g>
<g>
</g>
<g>
</g>
<g>
</g>
<g>
</g>
<g>
</g>
<g>
</g>
<g>
</g>
<g>
</g>
<g>
</g>
<g>
</g>
<g>
</g>
<g>
</g>
<g>
</g>
</svg>
