<?xml version="1.0" encoding="iso-8859-1"?>
<!-- Generator: Adobe Illustrator 19.0.0, SVG Export Plug-In . SVG Version: 6.00 Build 0)  -->
<svg xmlns="http://www.w3.org/2000/svg" xmlns:xlink="http://www.w3.org/1999/xlink" version="1.1" id="Capa_1" x="0px" y="0px" viewBox="0 0 511.999 511.999" style="enable-background:new 0 0 511.999 511.999;" xml:space="preserve" width="512px" height="512px">
<g>
	<g>
		<path d="M345.789,146.848v-57.06C345.789,40.279,305.509,0,256.001,0c-49.509,0-89.788,40.279-89.788,89.788v57.06h-23.848    v178.155h227.272V146.848H345.789z M271.001,251.268v37.741H241v-37.741c-12.302-5.69-20.862-18.142-20.862-32.563    c0-19.775,16.088-35.863,35.863-35.863c19.775,0,35.863,16.088,35.863,35.863C291.863,233.126,283.303,245.578,271.001,251.268z     M315.786,146.848H196.213v-57.06c0-32.966,26.82-59.787,59.787-59.787s59.787,26.82,59.787,59.787V146.848z" fill="#616161"/>
	</g>
</g>
<g>
	<g>
		<path d="M30.561,369.338v142.661h450.876V369.338H30.561z M155.765,452.126l-21.214,21.214l-11.458-11.459l-11.458,11.459    L90.42,452.126l11.459-11.459L90.42,429.209l21.214-21.214l11.458,11.459l11.458-11.459l21.214,21.214l-11.459,11.458    L155.765,452.126z M244.37,452.126l-21.214,21.214l-11.459-11.459l-11.458,11.46l-21.214-21.214l11.459-11.459l-11.459-11.459    l21.214-21.214l11.458,11.459l11.458-11.459l21.214,21.214l-11.459,11.458L244.37,452.126z M332.974,452.126L311.76,473.34    l-11.459-11.459l-11.459,11.46l-21.214-21.214l11.458-11.459l-11.458-11.459l21.214-21.214l11.458,11.459l11.459-11.459    l21.214,21.214l-11.458,11.458L332.974,452.126z M421.579,452.126l-21.214,21.214l-11.458-11.459l-11.459,11.459l-21.214-21.214    l11.458-11.459l-11.458-11.458l21.214-21.214l11.459,11.459l11.458-11.459l21.214,21.214l-11.459,11.458L421.579,452.126z" fill="#616161"/>
	</g>
</g>
<g>
</g>
<g>
</g>
<g>
</g>
<g>
</g>
<g>
</g>
<g>
</g>
<g>
</g>
<g>
</g>
<g>
</g>
<g>
</g>
<g>
</g>
<g>
</g>
<g>
</g>
<g>
</g>
<g>
</g>
</svg>
