<?xml version="1.0" encoding="utf-8"?>
<!DOCTYPE svg PUBLIC "-//W3C//DTD SVG 1.1//EN" "http://www.w3.org/Graphics/SVG/1.1/DTD/svg11.dtd">
<svg xmlns="http://www.w3.org/2000/svg" xmlns:xlink="http://www.w3.org/1999/xlink" width="512px" version="1.1" height="512px" viewBox="0 0 64 64" enable-background="new 0 0 64 64">
  <g>
    <path fill="#ffffff" d="m2.138,63.89c0.242,0 0.489-0.043 0.726-0.132l10.757-4.061c0.207-0.079 0.388-0.197 0.554-0.331 0.168-0.092 0.339-0.181 0.478-0.319l44.032-44.034c0.008-0.008 0.01-0.019 0.018-0.027l3.214-3.211c2.615-2.621 2.659-6.842 0.092-9.415-2.573-2.566-6.797-2.522-9.414,0.097l-3.365,3.366c-0.018,0.02-0.023,0.043-0.042,0.063l-43.85,43.849c-0.136,0.136-0.216,0.301-0.306,0.461-0.121,0.146-0.227,0.305-0.303,0.483l-4.475,10.344c-0.327,0.755-0.171,1.635 0.398,2.23 0.396,0.415 0.934,0.637 1.486,0.637zm3.808-5.683l1.351-3.126 1.898,1.898-3.249,1.228zm53.158-52.942c0.968,0.969 0.925,2.589-0.094,3.609l-1.782,1.782-3.514-3.515 1.78-1.781c1.021-1.023 2.645-1.062 3.61-0.095zm-8.282,4.789l3.509,3.508-41.131,41.132-3.508-3.509 41.13-41.131z"/>
  </g>
</svg>
