<?xml version="1.0" encoding="iso-8859-1"?>
<!-- Generator: Adobe Illustrator 19.0.0, SVG Export Plug-In . SVG Version: 6.00 Build 0)  -->
<svg version="1.1" id="Capa_1" xmlns="http://www.w3.org/2000/svg" xmlns:xlink="http://www.w3.org/1999/xlink" x="0px" y="0px"
	 viewBox="0 0 511.999 511.999" style="enable-background:new 0 0 511.999 511.999;" xml:space="preserve">
<g>
	<path style="fill:#FF0C38;" d="M372.204,196.343c0,0,52.955,78.734,126.554,122.839c8.726,5.229,7.19,18.322-2.482,21.474
		L463.7,351.268l9.73,32.485c3.256,10.872-9.089,19.664-18.33,13.075c-35.269-25.147-94.297-79.814-112.309-172.848L372.204,196.343
		z"/>
	<path style="fill:#FF0C38;" d="M139.797,196.343c0,0-52.955,78.734-126.554,122.839c-8.726,5.229-7.19,18.322,2.482,21.474
		l32.576,10.613l-9.73,32.485c-3.256,10.872,9.089,19.664,18.33,13.075c35.269-25.147,94.297-79.814,112.309-172.848
		L139.797,196.343z"/>
</g>
<g>
	<path style="fill:#D80027;" d="M56.489,397.098c0.137-0.09,0.276-0.173,0.411-0.27c35.269-25.147,94.297-79.814,112.309-172.848
		l-29.414-27.638c0,0-20.516,30.5-53.751,64.166C82.644,291.42,74.601,344.917,56.489,397.098z"/>
	<path style="fill:#D80027;" d="M455.512,397.098c-0.137-0.09-0.276-0.173-0.411-0.27c-35.269-25.147-94.297-79.814-112.309-172.848
		l29.414-27.638c0,0,20.516,30.5,53.751,64.166C429.357,291.42,437.4,344.917,455.512,397.098z"/>
	<path style="fill:#D80027;" d="M250.855,171.608c19.715,20.594,91.885-16.503,112.479-36.217
		c20.594-19.714,21.306-52.39,1.591-72.984s-52.39-21.306-72.984-1.592C271.348,80.53,231.14,151.014,250.855,171.608z
		 M276.949,146.684c1.554-6.093,4.661-14.951,10.543-26.544c8.672-17.093,19.278-32.347,25.194-37.654
		c12.124-10.875,26.452-3.634,30.569,0.666c8.244,8.612,7.944,22.325-0.666,30.569C331.476,124.357,297.908,142.343,276.949,146.684
		z"/>
</g>
<path style="fill:#A5001E;" d="M295.14,140.935c-6.502,2.586-12.77,4.626-18.191,5.749c1.554-6.093,4.661-14.951,10.543-26.544
	c0.427-0.842-2.238-11.71-4.401-16.534c-2.876-6.414-6.127-12.878-9.605-19.172c-18.874,29.096-37.269,71.884-22.632,87.174
	c8.03,8.388,24.761,7.204,43.166,1.524C296.842,163.841,297.219,153.097,295.14,140.935z"/>
<path style="fill:#FF0C38;" d="M220.059,60.815c-20.594-19.715-53.269-19.002-72.984,1.592s-19.002,53.269,1.592,72.984
	s92.764,56.81,112.479,36.217C280.861,151.014,240.653,80.53,220.059,60.815z M169.412,113.721
	c-8.61-8.244-8.91-21.957-0.666-30.569c4.117-4.3,18.445-11.541,30.569-0.666c5.917,5.307,16.522,20.562,25.194,37.654
	c5.882,11.593,8.989,20.451,10.543,26.544C214.093,142.343,180.525,124.357,169.412,113.721z"/>
<path style="fill:#F490C0;" d="M375.592,465.513H136.409c-17.308,0-31.338-14.031-31.338-31.338V143.714h301.858v290.46
	C406.929,451.482,392.9,465.513,375.592,465.513z"/>
<rect x="105.069" y="223.979" style="fill:#F072AE;" width="301.857" height="53.793"/>
<path style="fill:#F7AFD1;" d="M420.315,223.98H91.686c-12.694,0-22.985-10.291-22.985-22.985V166.7
	c0-12.694,10.291-22.985,22.985-22.985h328.631c12.694,0,22.985,10.291,22.985,22.985v34.296
	C443.301,213.69,433.01,223.98,420.315,223.98z"/>
<rect x="211.858" y="143.71" style="fill:#FF0C38;" width="88.289" height="321.797"/>
<rect x="211.858" y="223.979" style="fill:#D80027;" width="88.289" height="53.793"/>
<rect x="211.858" y="143.71" style="fill:#FF728B;" width="88.289" height="80.269"/>
<path d="M502.614,312.749c-36.633-21.952-68.015-52.935-88.184-75.456v-5.812h5.886c16.81,0,30.485-13.676,30.485-30.485V166.7
	c0-16.81-13.676-30.485-30.485-30.485H372.83c19.24-22.781,18.587-56.981-2.487-78.994c-22.542-23.547-60.039-24.366-83.588-1.823
	c-9.396,8.995-21.324,26.261-30.776,44.083c-10.064-18.955-22.262-35.973-30.734-44.084c-2.534-2.425-5.286-4.631-8.182-6.558
	c-3.449-2.294-8.104-1.358-10.398,2.09c-2.295,3.449-1.358,8.104,2.09,10.399c2.162,1.438,4.221,3.088,6.117,4.904
	c11.744,11.243,32.378,43.195,40.609,69.981h-15.813c-2.139-6.052-4.979-12.587-8.471-19.468
	c-8.627-17.003-19.678-33.387-26.875-39.844c-15.199-13.631-34.2-6.034-40.995,1.063c-11.104,11.599-10.701,30.069,0.897,41.173
	c5.22,4.996,14.58,11.231,25.227,17.076h-28.041c-3.017-2.238-5.61-4.376-7.558-6.241c-17.573-16.824-18.184-44.808-1.36-62.38
	c8.215-8.581,19.281-13.413,31.16-13.604c4.142-0.067,7.444-3.479,7.378-7.62c-0.067-4.142-3.515-7.431-7.62-7.378
	c-15.917,0.257-30.745,6.731-41.754,18.229c-21.073,22.013-21.727,56.212-2.487,78.994H91.686c-16.81,0-30.485,13.676-30.485,30.485
	v34.296c0,16.81,13.676,30.485,30.485,30.485h5.886v5.815c-20.394,22.766-51.698,53.59-88.184,75.453
	c-6.573,3.939-10.121,11.124-9.26,18.751c0.865,7.66,5.951,13.9,13.273,16.287l25.614,8.344l-7.629,25.471
	c-2.414,8.06,0.443,16.43,7.279,21.323c3.43,2.454,7.362,3.682,11.298,3.681c3.929,0,7.859-1.223,11.292-3.67
	c7.537-5.375,14.973-11.238,22.1-17.429c3.127-2.716,3.459-7.454,0.743-10.581c-2.718-3.128-7.455-3.46-10.581-0.744
	c-6.766,5.878-13.821,11.442-20.971,16.54c-2.331,1.662-4.378,0.557-5.15,0.005c-0.764-0.547-2.452-2.111-1.641-4.822l9.729-32.485
	c1.169-3.901-0.989-8.021-4.861-9.283l-32.576-10.613c-2.433-0.793-2.919-2.857-3.015-3.708c-0.095-0.834-0.082-2.915,2.065-4.202
	c31.886-19.108,59.836-44.61,80.473-66.228v174.788c0,21.416,17.423,38.838,38.838,38.838h239.184
	c21.415,0,38.838-17.423,38.838-38.838v-61.848c11.3,11.187,23.466,21.446,36.316,30.609c3.433,2.447,7.362,3.67,11.292,3.67
	c3.935,0,7.869-1.228,11.298-3.682c6.836-4.893,9.693-13.263,7.279-21.323l-7.629-25.471l25.614-8.345
	c7.322-2.386,12.408-8.626,13.273-16.286C512.734,323.872,509.186,316.688,502.614,312.749z M435.8,166.7v34.296
	c0,8.539-6.946,15.485-15.485,15.485h-112.67v-65.266h112.67C428.854,151.214,435.8,158.161,435.8,166.7z M292.646,151.214v65.266
	h-73.29v-65.266H292.646z M288.71,135.373c1.551-3.76,3.379-7.718,5.47-11.84c8.376-16.509,18.533-30.997,23.514-35.464
	c3.132-2.809,6.42-3.764,9.418-3.764c5.356,0,9.785,3.05,10.726,4.033c5.385,5.624,5.189,14.581-0.435,19.965
	C329.768,115.612,307.901,128.305,288.71,135.373z M264.193,116.617c10.233-22.053,24.437-42.248,32.936-50.383
	c17.572-16.822,45.558-16.213,62.379,1.36c16.823,17.573,16.213,45.557-1.36,62.38c-1.948,1.865-4.539,4-7.56,6.24h-28.005
	c10.561-5.791,19.877-11.987,25.193-17.077c11.599-11.104,12.001-29.574,0.896-41.173c-2.834-2.96-8.829-6.891-16.397-8.224
	c-6.337-1.114-15.744-0.779-24.597,7.161c-7.197,6.457-18.248,22.841-26.875,39.844c-3.497,6.894-9.728,19.468-9.728,19.468
	C269.382,129.877,267.016,123.255,264.193,116.617z M174.164,88.339c0.941-0.983,5.37-4.033,10.727-4.033
	c2.998,0,6.287,0.956,9.418,3.764c4.98,4.468,15.138,18.956,23.514,35.464c2.229,4.394,4.162,8.608,5.779,12.6
	c-0.697-0.669-42.03-21.156-49.002-27.83C168.975,102.919,168.78,93.963,174.164,88.339z M76.201,200.995V166.7
	c0-8.539,6.946-15.485,15.485-15.485h112.67v65.266H91.686C83.147,216.481,76.201,209.534,76.201,200.995z M112.571,434.174V231.48
	h91.784v226.533h-67.946C123.264,458.013,112.571,447.319,112.571,434.174z M375.592,458.013h-67.946v-98.559
	c0-4.142-3.357-7.5-7.5-7.5c-4.143,0-7.5,3.358-7.5,7.5v98.559h-73.29V231.48h73.29v94.426c0,4.142,3.357,7.5,7.5,7.5
	c4.143,0,7.5-3.358,7.5-7.5V231.48h91.784v202.694C399.43,447.319,388.737,458.013,375.592,458.013z M496.968,329.816
	c-0.096,0.851-0.582,2.915-3.015,3.708l-32.576,10.612c-3.872,1.262-6.03,5.382-4.861,9.283l9.729,32.485
	c0.812,2.711-0.877,4.275-1.641,4.822c-0.772,0.552-2.82,1.656-5.15-0.004c-16.305-11.625-31.452-25.11-45.025-40.08v-91.253
	c32.71,34.301,61.372,54.779,80.473,66.226C497.05,326.901,497.063,328.981,496.968,329.816z"/>
<g>
</g>
<g>
</g>
<g>
</g>
<g>
</g>
<g>
</g>
<g>
</g>
<g>
</g>
<g>
</g>
<g>
</g>
<g>
</g>
<g>
</g>
<g>
</g>
<g>
</g>
<g>
</g>
<g>
</g>
</svg>
