<svg xmlns="http://www.w3.org/2000/svg" xmlns:xlink="http://www.w3.org/1999/xlink" viewBox="0 0 650.76 647" width="681" height="652"><defs><style>.cls-1{isolation:isolate;}.cls-2{fill:url(#radial-gradient);}.cls-14,.cls-3{fill:#00a99d;}.cls-3{mix-blend-mode:multiply;}.cls-4{fill:#b3b3b3;}.cls-5{fill:#754c24;}.cls-6{fill:#e6e6e6;}.cls-7{fill:url(#linear-gradient);}.cls-8{fill:url(#linear-gradient-2);}.cls-9{fill:url(#linear-gradient-3);}.cls-10{fill:url(#linear-gradient-4);}.cls-11{fill:url(#linear-gradient-5);}.cls-12{fill:url(#linear-gradient-6);}.cls-13{fill:url(#linear-gradient-7);}.cls-14{font-size:15px;stroke:#00a99d;stroke-miterlimit:10;font-family:JosefinSans-Thin, Josefin Sans;}.cls-15{letter-spacing:-0.04em;}.cls-16{letter-spacing:-0.02em;}.cls-17{fill:url(#linear-gradient-8);}.cls-18{fill:url(#linear-gradient-9);}.cls-19{fill:url(#linear-gradient-10);}.cls-20{fill:url(#linear-gradient-11);}.cls-21{fill:url(#linear-gradient-12);}.cls-22{fill:url(#linear-gradient-13);}.cls-23{fill:url(#linear-gradient-14);}.cls-24{fill:#3b5998;}.cls-25{fill:#fff;}.cls-26{fill:#6c27b3;}.cls-27{fill:#501a96;}.cls-28{fill:#d1d1d1;}.cls-29{fill:#55acee;}.cls-30{fill:#f1f2f2;}.cls-31{letter-spacing:-0.01em;}.cls-32{fill:#349886;}.cls-33{fill:#3db39e;}.cls-34{fill:#f4b459;}.cls-35{fill:#e2574c;}.cls-36{fill:#29abe2;}.cls-37{letter-spacing:-0.08em;}.cls-38{letter-spacing:-0.01em;}</style><radialGradient id="radial-gradient" cx="325.38" cy="610.04" r="503.18" gradientTransform="translate(0 -344.24) scale(1 1.07)" gradientUnits="userSpaceOnUse"><stop offset="0.01" stop-color="#009245"/><stop offset="0.06" stop-color="#028b43"/><stop offset="0.31" stop-color="#0b6d3c"/><stop offset="0.55" stop-color="#125737"/><stop offset="0.78" stop-color="#164a34"/><stop offset="0.99" stop-color="#174533"/></radialGradient><linearGradient id="linear-gradient" x1="396.58" y1="11.23" x2="404.73" y2="11.23" gradientUnits="userSpaceOnUse"><stop offset="0" stop-color="#26c2e7"/><stop offset="1" stop-color="#68c3a7"/></linearGradient><linearGradient id="linear-gradient-2" x1="406.48" y1="13.47" x2="414.09" y2="13.47" xlink:href="#linear-gradient"/><linearGradient id="linear-gradient-3" x1="416.83" y1="13.47" x2="424.57" y2="13.47" xlink:href="#linear-gradient"/><linearGradient id="linear-gradient-4" x1="427.57" y1="12.22" x2="432.59" y2="12.22" xlink:href="#linear-gradient"/><linearGradient id="linear-gradient-5" x1="434.87" y1="13.52" x2="442.53" y2="13.52" xlink:href="#linear-gradient"/><linearGradient id="linear-gradient-6" x1="445.44" y1="13.47" x2="456.91" y2="13.47" xlink:href="#linear-gradient"/><linearGradient id="linear-gradient-7" x1="459.89" y1="13.47" x2="467.63" y2="13.47" xlink:href="#linear-gradient"/><linearGradient id="linear-gradient-8" x1="177.58" y1="11.23" x2="185.73" y2="11.23" xlink:href="#linear-gradient"/><linearGradient id="linear-gradient-9" x1="187.48" y1="13.47" x2="195.09" y2="13.47" xlink:href="#linear-gradient"/><linearGradient id="linear-gradient-10" x1="197.83" y1="13.47" x2="205.57" y2="13.47" xlink:href="#linear-gradient"/><linearGradient id="linear-gradient-11" x1="208.57" y1="12.22" x2="213.59" y2="12.22" xlink:href="#linear-gradient"/><linearGradient id="linear-gradient-12" x1="215.87" y1="13.52" x2="223.53" y2="13.52" xlink:href="#linear-gradient"/><linearGradient id="linear-gradient-13" x1="226.44" y1="13.47" x2="237.91" y2="13.47" xlink:href="#linear-gradient"/><linearGradient id="linear-gradient-14" x1="240.89" y1="13.47" x2="248.63" y2="13.47" xlink:href="#linear-gradient"/></defs><title>Ground Template</title><g class="cls-1"><g id="Layer_2" data-name="Layer 2"><g id="Layer_1-2" data-name="Layer 1"><polyline class="cls-2" points="141.7 21.02 0 629 650.76 629 509.07 21.02"/><path class="cls-3" d="M551.35,202.43H99.42l-5.66,24.29H557Zm-11.44-49.1h-429l-5.71,24.49H545.61Zm-9.44-40.52H120.31l-4.65,20H535.11ZM521.4,73.94h-392l-4.25,18.22H525.65Zm-8.29-35.58H137.66l-3.89,16.69H517Zm96,412.08H41.62l-9,38.56h585.5Zm19.39,83.18H22.23L12,577.72H638.81ZM577,312.37H73.79l-7,30.2H584Zm-13.5-57.92H87.29l-6.29,27H569.76Zm28.62,122.81H58.67l-7.92,34H600Z"/><path class="cls-4" d="M284,604.05H29.33L35,577.72l9.52-44.09L54.17,489l8.33-38.56L71,411.25l7.34-34,7.49-34.68,6.52-30.2L99,281.46l5.83-27,6-27.73L116,202.43l5.4-25,4.74-22,4.9-22.67,4.31-20,4.46-20.65,3.93-18.22,4.08-18.88,3.6-16.69,2-9.16H301.36l.15-4.89h47.76l.15,4.89H497.32l2,9.16,3.6,16.69L507,73.94l3.93,18.22,4.46,20.65,4.31,20,4.9,22.67,4.74,22,5.4,25L540,226.72l6,27.73,5.83,27,6.67,30.91,6.52,30.2,7.49,34.68,7.34,34,8.46,39.19L596.6,489l9.64,44.62,9.52,44.09,5.69,26.33H366.75l.44,14.74H283.57ZM114.35,226.72l-2.59,12.19H261.32q.15-1.59.42-3.16t.64-3.09q.37-1.52.84-3t1-2.93a48.14,48.14,0,0,1,3.47-7,51.86,51.86,0,0,1,4.55-6.43,56.63,56.63,0,0,1,5.52-5.78,61,61,0,0,1,6.37-5.06,66.13,66.13,0,0,1,9-5.22,70.71,70.71,0,0,1,10-3.89,74.36,74.36,0,0,1,10.79-2.43,77.93,77.93,0,0,1,22.87,0,74.38,74.38,0,0,1,10.79,2.43,70.81,70.81,0,0,1,10,3.89,66.2,66.2,0,0,1,9,5.22,61,61,0,0,1,6.37,5.06,56.55,56.55,0,0,1,5.52,5.78,51.86,51.86,0,0,1,4.55,6.43,48.14,48.14,0,0,1,3.47,7q.57,1.45,1,2.93t.85,3q.37,1.53.64,3.09t.42,3.16H539l-2.59-12.19-5.16-24.29-5.31-25-4.66-22-4.81-22.67-4.24-20-4.39-20.65L504,73.94l-4-18.88-3.55-16.69a21.23,21.23,0,0,1-4.3-.84,18.78,18.78,0,0,1-3.76-1.6,13.5,13.5,0,0,1-2.93-2.21,8.52,8.52,0,0,1-1.83-2.65H434.86l1,7.3,2.29,16.69,2.59,18.88,2.5,18.22.22,1.58h-72.9a45.47,45.47,0,0,1-8.62,7,58.22,58.22,0,0,1-10.76,5.3,70.28,70.28,0,0,1-12.37,3.35,77.88,77.88,0,0,1-26.85,0A70.22,70.22,0,0,1,299.58,106a58.17,58.17,0,0,1-10.76-5.3,45.47,45.47,0,0,1-8.62-7H207.3l.22-1.58L210,73.94l2.59-18.88,2.29-16.69,1-7.3H167.16a8.53,8.53,0,0,1-1.83,2.65,13.38,13.38,0,0,1-2.93,2.19,18,18,0,0,1-3.75,1.57,20.37,20.37,0,0,1-4.28.78L150.8,55.06l-4,18.88-3.87,18.22-4.38,20.65-4.24,20-4.81,22.67-4.67,22-5.31,25-5.16,24.29m-74.53,351a17.28,17.28,0,0,1,6.4,2.35A16.88,16.88,0,0,1,51,584.6,19.16,19.16,0,0,1,54,590.9a23.6,23.6,0,0,1,.69,7.67h83.4l2.86-20.85,6-44.09L153.09,489l5.29-38.56.43-3.16H261.66a83.1,83.1,0,0,1,13.15-13.66,81,81,0,0,1,15.39-10,78.74,78.74,0,0,1,70.37,0,80.94,80.94,0,0,1,15.4,10,83,83,0,0,1,13.14,13.66H491.95l.43,3.16L497.67,489l6.12,44.62,6,44.09,2.86,20.85h83.4a23.6,23.6,0,0,1,.69-7.67,18.8,18.8,0,0,1,2.94-6.27,16.28,16.28,0,0,1,4.85-4.43A16.64,16.64,0,0,1,611,578l-9.43-44.4L592.11,489l-8.19-38.56-8.32-39.19-7.22-34L561,342.57l-6.41-30.2L548,281.46l-5.73-27-2.67-12.57h-150q0,1.61,0,3.2t-.25,3.16q-.18,1.58-.47,3.13t-.69,3.08a46.13,46.13,0,0,1-2.7,7.53,49.47,49.47,0,0,1-4,7.09,53.83,53.83,0,0,1-5.21,6.53,58.72,58.72,0,0,1-6.33,5.85,64.21,64.21,0,0,1-9.34,6.18,69.59,69.59,0,0,1-10.71,4.69,73.92,73.92,0,0,1-11.83,3,77.95,77.95,0,0,1-25.37,0,74,74,0,0,1-11.83-3,69.58,69.58,0,0,1-10.71-4.69,64.16,64.16,0,0,1-9.34-6.18,58.57,58.57,0,0,1-6.34-5.85,54,54,0,0,1-5.21-6.53,49.4,49.4,0,0,1-4-7.09,46.14,46.14,0,0,1-2.7-7.53q-.4-1.53-.69-3.08t-.47-3.13q-.18-1.57-.25-3.16t0-3.2h-150l-2.67,12.57-5.73,27-6.57,30.91-6.41,30.2-7.37,34.68-7.22,34-8.32,39.19L58.65,489l-9.47,44.62-9.36,44.09M213,73.94l-2.36,17.64H440.09l-2.36-17.64-2.52-18.88L433,38.36l-1-7.3H381.18l.51,7.3,1,14.46H268.06l1-14.46.51-7.3H218.75l-1,7.3-2.23,16.69L213,73.94M493.18,489l-5-37.39H162.57l-5,37.39-6,44.62-5.89,44.09-2.79,20.85h87l1.46-20.85,2.69-38.46H416.71l2.69,38.46,1.46,20.85h87L505,577.72l-5.89-44.09-6-44.62M386,241.88H264.76q0,1.61,0,3.2c.06,1.06.15,2.12.29,3.17s.31,2.09.53,3.12.47,2.06.76,3.07a44,44,0,0,0,3,7.69,47.63,47.63,0,0,0,4.46,7.16,52.29,52.29,0,0,0,5.79,6.49,57.48,57.48,0,0,0,7,5.67A62.66,62.66,0,0,0,295,286.3a66.51,66.51,0,0,0,9.36,3.65,69.66,69.66,0,0,0,10.18,2.3,73.57,73.57,0,0,0,21.63,0,69.66,69.66,0,0,0,10.18-2.3,66.41,66.41,0,0,0,9.36-3.65,62.65,62.65,0,0,0,8.37-4.84,57.55,57.55,0,0,0,7-5.67,52.28,52.28,0,0,0,5.79-6.49,47.56,47.56,0,0,0,4.46-7.16,44,44,0,0,0,3-7.69q.44-1.53.76-3.07c.21-1,.39-2.07.53-3.12s.23-2.11.29-3.17.07-2.13,0-3.2m-121.07-3H385.83c-.1-1.06-.24-2.12-.42-3.17s-.4-2.07-.65-3.09-.55-2-.88-3-.69-2-1.09-2.93a45.91,45.91,0,0,0-3.74-7.17,50,50,0,0,0-4.94-6.49,54.85,54.85,0,0,0-6-5.73,59.79,59.79,0,0,0-6.92-4.89,64.17,64.17,0,0,0-8-4.11,67.86,67.86,0,0,0-8.71-3,70.37,70.37,0,0,0-9.31-1.9,73.42,73.42,0,0,0-19.61,0,70.42,70.42,0,0,0-9.31,1.9,67.92,67.92,0,0,0-8.71,3,64.16,64.16,0,0,0-8,4.11,59.89,59.89,0,0,0-6.92,4.89,54.94,54.94,0,0,0-6,5.73,50.07,50.07,0,0,0-4.94,6.49,45.93,45.93,0,0,0-3.74,7.17q-.59,1.44-1.09,2.93t-.87,3c-.26,1-.47,2-.65,3.09s-.32,2.1-.42,3.17M414.59,577.72l-2.22-33.44h-174l-2.22,33.44-1.38,20.85H416l-1.38-20.85M272,38.36l-.83,12.49H379.64l-.83-12.49-.48-7.3H272.44l-.48,7.3M267,447.28H383.71a78.29,78.29,0,0,0-12.23-11.9,76.17,76.17,0,0,0-14.12-8.72,74.36,74.36,0,0,0-64,0,76.11,76.11,0,0,0-14.12,8.72A78.18,78.18,0,0,0,267,447.28M366.73,93.74H284a44.9,44.9,0,0,0,8.11,6.08,56.55,56.55,0,0,0,9.89,4.59,67,67,0,0,0,11.24,2.89,73.7,73.7,0,0,0,24.23,0,67,67,0,0,0,11.23-2.89,56.52,56.52,0,0,0,9.89-4.59,44.88,44.88,0,0,0,8.11-6.08M304.28,26.15l-.08,3.05h42.36l-.08-3.05h-42.2m57.82,587-.24-9.13H288.91l-.24,9.13H362.1M155.9,31.06l-1.12,5.27a15.67,15.67,0,0,0,3.12-.61,14,14,0,0,0,2.75-1.16A10.49,10.49,0,0,0,162.83,33a6.93,6.93,0,0,0,1.44-1.91H155.9m339,0H486.5A6.9,6.9,0,0,0,487.93,33a10.44,10.44,0,0,0,2.18,1.59,13.93,13.93,0,0,0,2.75,1.16,15.7,15.7,0,0,0,3.12.61l-1.12-5.27M38.61,583.41l-3.22,15.16H49.71A18,18,0,0,0,49,593a14.53,14.53,0,0,0-2.22-4.57,12.59,12.59,0,0,0-3.55-3.29,12.82,12.82,0,0,0-4.67-1.73m576.77,15.16-3.22-15.16a12.82,12.82,0,0,0-4.67,1.73,12.58,12.58,0,0,0-3.55,3.29,14.47,14.47,0,0,0-2.22,4.57,17.92,17.92,0,0,0-.66,5.56h14.32"/><rect class="cls-5" x="0.5" y="629" width="650" height="18"/><path class="cls-6" d="M397.87,0h69a8,8,0,0,1,8,8V22.17a0,0,0,0,1,0,0h-85a0,0,0,0,1,0,0V8a8,8,0,0,1,8-8Z"/><path class="cls-7" d="M399.74,5.37l3.24.1,1.7,0a3.51,3.51,0,0,1,0,.66,1.09,1.09,0,0,1-.12.6.47.47,0,0,1-.42.18q-.3,0-1.26-.08t-1.43-.08l-.6,0q-.07.63-.79,4,1.26-.12,2.1-.12a5,5,0,0,1,1.31.13,2.79,2.79,0,0,1-.3,1.19,8.33,8.33,0,0,0-1.69-.15,11.66,11.66,0,0,0-1.65.1,24.76,24.76,0,0,0-.61,4.55v.28a6.09,6.09,0,0,1-2.51.33h-.17a28.71,28.71,0,0,1,.77-4.68q.77-3.55.93-5.11a1.63,1.63,0,0,0-.17-.64,2.87,2.87,0,0,0-.35-.6l-.17-.23,0-.25A11.36,11.36,0,0,1,399.74,5.37Z"/><path class="cls-8" d="M411.38,10.19a2.59,2.59,0,0,0,.18-.43,6.66,6.66,0,0,1,2.08.46,22.94,22.94,0,0,0-.66,2.87,15,15,0,0,0-.25,2.13q0,.64.13.64a3.41,3.41,0,0,0,.73-.31l.2-.1.3.58-.39.33a5.54,5.54,0,0,1-.9.54,2.66,2.66,0,0,1-1.19.34,1.06,1.06,0,0,1-1.19-.93,3.07,3.07,0,0,1-1.91.93,1.85,1.85,0,0,1-1.44-.66,3.08,3.08,0,0,1-.59-2.08,5.94,5.94,0,0,1,.91-3.5,2.65,2.65,0,0,1,2.2-1.28A3.62,3.62,0,0,1,411.38,10.19Zm-1.88,5.64a1.72,1.72,0,0,0,.89-.31,20.09,20.09,0,0,1,.78-4.61,2.2,2.2,0,0,0-.84-.22q-.6,0-1,1.17a7.51,7.51,0,0,0-.42,2.57Q408.88,15.82,409.49,15.82Z"/><path class="cls-9" d="M417.15,17.08h-.31a17.6,17.6,0,0,1,.47-3,24.91,24.91,0,0,0,.47-2.5,2,2,0,0,0-.46-1.16l-.15-.2,0-.21A11.76,11.76,0,0,1,420,9.79a1.84,1.84,0,0,1,.23,1,4.33,4.33,0,0,1,2.43-1.11,1.19,1.19,0,0,1,1,.41,1.53,1.53,0,0,1,.36,1,10.42,10.42,0,0,1-.38,2.14,10.6,10.6,0,0,0-.38,2q0,.52.13.52a3,3,0,0,0,.69-.31l.2-.1.3.58-.4.33a5.9,5.9,0,0,1-.92.54,2.71,2.71,0,0,1-1.2.34q-1.21,0-1.21-1.37a11.16,11.16,0,0,1,.37-2.13,11.68,11.68,0,0,0,.37-2q0-.45-.28-.45a2.43,2.43,0,0,0-1.17.41q0,.28-.33,1.49a19.71,19.71,0,0,0-.58,3.67A6.35,6.35,0,0,1,417.15,17.08Z"/><path class="cls-10" d="M432.59,9.9a3,3,0,0,1-.28,1,11.45,11.45,0,0,0-1.19-.07h-.3a33.14,33.14,0,0,0-.76,4.6q0,.48.21.48a4.23,4.23,0,0,0,1.1-.41l.3.55a4.42,4.42,0,0,1-2.73,1.22,1.26,1.26,0,0,1-1.32-1.33,7.58,7.58,0,0,1,.14-1.36q.14-.76.39-1.86t.36-1.78q-.61,0-.91.1a3.41,3.41,0,0,1,0-.54,2.54,2.54,0,0,1,0-.55h1a11.56,11.56,0,0,0,.13-1.69l0-.51v0a7.44,7.44,0,0,1,2.43-.45,4.33,4.33,0,0,1,.07.83A11.43,11.43,0,0,1,431,9.9Z"/><path class="cls-11" d="M434.87,15.78a11.64,11.64,0,0,1,.43-2.41,13.24,13.24,0,0,0,.43-2.1,1.8,1.8,0,0,0-.6-1l0-.21a15.23,15.23,0,0,1,3-.23,2.47,2.47,0,0,1,.08.78,13,13,0,0,1-.46,2.4,13.8,13.8,0,0,0-.46,2.28q0,.45.33.45a2.36,2.36,0,0,0,1.11-.35q.07-.4.33-1.52a19.89,19.89,0,0,0,.6-3.79,6.35,6.35,0,0,1,2.08-.23H442a18.89,18.89,0,0,1-.46,3,23.48,23.48,0,0,0-.46,2.65q0,.39.17.39a5.67,5.67,0,0,0,.94-.4l.31.53A4.32,4.32,0,0,1,440,17.23a1.4,1.4,0,0,1-.9-.3,1.1,1.1,0,0,1-.42-.78,4,4,0,0,1-2.43,1.09,1.27,1.27,0,0,1-1-.38A1.48,1.48,0,0,1,434.87,15.78Z"/><path class="cls-12" d="M445.75,17.08h-.31a17.6,17.6,0,0,1,.47-3,24.94,24.94,0,0,0,.47-2.5,2,2,0,0,0-.46-1.16l-.15-.2,0-.21a11.76,11.76,0,0,1,2.86-.25,1.76,1.76,0,0,1,.23,1,4.51,4.51,0,0,1,2.36-1.11,1.21,1.21,0,0,1,1.31,1.14,7.56,7.56,0,0,1,1.17-.75A2.78,2.78,0,0,1,455,9.71a1.31,1.31,0,0,1,1,.37,1.38,1.38,0,0,1,.38,1,10.82,10.82,0,0,1-.36,2.18,11,11,0,0,0-.36,2q0,.52.15.52a2.88,2.88,0,0,0,.68-.31l.18-.1.3.58a4.84,4.84,0,0,1-1.17.82,2.86,2.86,0,0,1-1.3.39q-1.24,0-1.24-1.41a11.69,11.69,0,0,1,.36-2.06,11.89,11.89,0,0,0,.36-2q0-.47-.28-.47a2.2,2.2,0,0,0-1.09.36q0,.33-.45,2.25a14.91,14.91,0,0,0-.42,3,7,7,0,0,1-2.25.21,6.69,6.69,0,0,1,0-.88,12.18,12.18,0,0,1,.39-2.36,13.16,13.16,0,0,0,.39-2.12q0-.45-.31-.45a2,2,0,0,0-1.09.4l-.33,1.46a19.43,19.43,0,0,0-.6,3.72A6.35,6.35,0,0,1,445.75,17.08Z"/><path class="cls-13" d="M460.21,17.08h-.31a17.6,17.6,0,0,1,.47-3,24.94,24.94,0,0,0,.47-2.5,2,2,0,0,0-.46-1.16l-.15-.2,0-.21a11.76,11.76,0,0,1,2.86-.25,1.84,1.84,0,0,1,.23,1,4.33,4.33,0,0,1,2.43-1.11,1.19,1.19,0,0,1,1,.41,1.53,1.53,0,0,1,.36,1,10.42,10.42,0,0,1-.38,2.14,10.6,10.6,0,0,0-.38,2q0,.52.13.52a3,3,0,0,0,.69-.31l.2-.1.3.58-.4.33a5.9,5.9,0,0,1-.92.54,2.71,2.71,0,0,1-1.2.34q-1.21,0-1.21-1.37a11.15,11.15,0,0,1,.37-2.13,11.69,11.69,0,0,0,.37-2q0-.45-.28-.45a2.43,2.43,0,0,0-1.17.41q0,.28-.33,1.49a19.72,19.72,0,0,0-.58,3.67A6.35,6.35,0,0,1,460.21,17.08Z"/><text class="cls-14" transform="translate(28.89 642)"><tspan class="cls-15">V</tspan><tspan x="9.84" y="0">isit us on: www.</tspan><tspan class="cls-16" x="101.73" y="0">f</tspan><tspan x="105.78" y="0">antumn.com</tspan></text><path class="cls-6" d="M178.87,0h69a8,8,0,0,1,8,8V22.17a0,0,0,0,1,0,0h-85a0,0,0,0,1,0,0V8A8,8,0,0,1,178.87,0Z"/><path class="cls-17" d="M180.74,5.37l3.24.1,1.7,0a3.51,3.51,0,0,1,0,.66,1.09,1.09,0,0,1-.12.6.47.47,0,0,1-.42.18q-.3,0-1.26-.08t-1.43-.08l-.6,0q-.07.63-.79,4,1.26-.12,2.1-.12a5,5,0,0,1,1.31.13,2.79,2.79,0,0,1-.3,1.19,8.33,8.33,0,0,0-1.69-.15,11.66,11.66,0,0,0-1.65.1,24.76,24.76,0,0,0-.61,4.55v.28a6.09,6.09,0,0,1-2.51.33h-.17a28.71,28.71,0,0,1,.77-4.68q.77-3.55.93-5.11a1.63,1.63,0,0,0-.17-.64,2.87,2.87,0,0,0-.35-.6l-.17-.23,0-.25A11.36,11.36,0,0,1,180.74,5.37Z"/><path class="cls-18" d="M192.38,10.19a2.59,2.59,0,0,0,.18-.43,6.66,6.66,0,0,1,2.08.46,22.94,22.94,0,0,0-.66,2.87,15,15,0,0,0-.25,2.13q0,.64.13.64a3.41,3.41,0,0,0,.73-.31l.2-.1.3.58-.39.33a5.54,5.54,0,0,1-.9.54,2.66,2.66,0,0,1-1.19.34,1.06,1.06,0,0,1-1.19-.93,3.07,3.07,0,0,1-1.91.93,1.85,1.85,0,0,1-1.44-.66,3.08,3.08,0,0,1-.59-2.08,5.94,5.94,0,0,1,.91-3.5,2.65,2.65,0,0,1,2.2-1.28A3.62,3.62,0,0,1,192.38,10.19Zm-1.88,5.64a1.72,1.72,0,0,0,.89-.31,20.09,20.09,0,0,1,.78-4.61,2.2,2.2,0,0,0-.84-.22q-.6,0-1,1.17a7.51,7.51,0,0,0-.42,2.57Q189.88,15.82,190.49,15.82Z"/><path class="cls-19" d="M198.15,17.08h-.31a17.6,17.6,0,0,1,.47-3,24.91,24.91,0,0,0,.47-2.5,2,2,0,0,0-.46-1.16l-.15-.2,0-.21A11.76,11.76,0,0,1,201,9.79a1.84,1.84,0,0,1,.23,1,4.33,4.33,0,0,1,2.43-1.11,1.19,1.19,0,0,1,1,.41,1.53,1.53,0,0,1,.36,1,10.42,10.42,0,0,1-.38,2.14,10.6,10.6,0,0,0-.38,2q0,.52.13.52a3,3,0,0,0,.69-.31l.2-.1.3.58-.4.33a5.9,5.9,0,0,1-.92.54,2.71,2.71,0,0,1-1.2.34q-1.21,0-1.21-1.37a11.16,11.16,0,0,1,.37-2.13,11.68,11.68,0,0,0,.37-2q0-.45-.28-.45a2.43,2.43,0,0,0-1.17.41q0,.28-.33,1.49a19.71,19.71,0,0,0-.58,3.67A6.35,6.35,0,0,1,198.15,17.08Z"/><path class="cls-20" d="M213.59,9.9a3,3,0,0,1-.28,1,11.45,11.45,0,0,0-1.19-.07h-.3a33.14,33.14,0,0,0-.76,4.6q0,.48.21.48a4.23,4.23,0,0,0,1.1-.41l.3.55a4.42,4.42,0,0,1-2.73,1.22,1.26,1.26,0,0,1-1.32-1.33,7.58,7.58,0,0,1,.14-1.36q.14-.76.39-1.86t.36-1.78q-.61,0-.91.1a3.41,3.41,0,0,1,0-.54,2.54,2.54,0,0,1,0-.55h1a11.56,11.56,0,0,0,.13-1.69l0-.51v0a7.44,7.44,0,0,1,2.43-.45,4.33,4.33,0,0,1,.07.83A11.43,11.43,0,0,1,212,9.9Z"/><path class="cls-21" d="M215.87,15.78a11.64,11.64,0,0,1,.43-2.41,13.24,13.24,0,0,0,.43-2.1,1.8,1.8,0,0,0-.6-1l0-.21a15.23,15.23,0,0,1,3-.23,2.47,2.47,0,0,1,.08.78,13,13,0,0,1-.46,2.4,13.8,13.8,0,0,0-.46,2.28q0,.45.33.45a2.36,2.36,0,0,0,1.11-.35q.07-.4.33-1.52a19.89,19.89,0,0,0,.6-3.79,6.35,6.35,0,0,1,2.08-.23H223a18.89,18.89,0,0,1-.46,3,23.48,23.48,0,0,0-.46,2.65q0,.39.17.39a5.67,5.67,0,0,0,.94-.4l.31.53A4.32,4.32,0,0,1,221,17.23a1.4,1.4,0,0,1-.9-.3,1.1,1.1,0,0,1-.42-.78,4,4,0,0,1-2.43,1.09,1.27,1.27,0,0,1-1-.38A1.48,1.48,0,0,1,215.87,15.78Z"/><path class="cls-22" d="M226.75,17.08h-.31a17.6,17.6,0,0,1,.47-3,24.94,24.94,0,0,0,.47-2.5,2,2,0,0,0-.46-1.16l-.15-.2,0-.21a11.76,11.76,0,0,1,2.86-.25,1.76,1.76,0,0,1,.23,1,4.51,4.51,0,0,1,2.36-1.11,1.21,1.21,0,0,1,1.31,1.14,7.56,7.56,0,0,1,1.17-.75A2.78,2.78,0,0,1,236,9.71a1.31,1.31,0,0,1,1,.37,1.38,1.38,0,0,1,.38,1,10.82,10.82,0,0,1-.36,2.18,11,11,0,0,0-.36,2q0,.52.15.52a2.88,2.88,0,0,0,.68-.31l.18-.1.3.58a4.84,4.84,0,0,1-1.17.82,2.86,2.86,0,0,1-1.3.39q-1.24,0-1.24-1.41a11.69,11.69,0,0,1,.36-2.06,11.89,11.89,0,0,0,.36-2q0-.47-.28-.47a2.2,2.2,0,0,0-1.09.36q0,.33-.45,2.25a14.91,14.91,0,0,0-.42,3,7,7,0,0,1-2.25.21,6.69,6.69,0,0,1,0-.88,12.18,12.18,0,0,1,.39-2.36,13.16,13.16,0,0,0,.39-2.12q0-.45-.31-.45a2,2,0,0,0-1.09.4l-.33,1.46a19.43,19.43,0,0,0-.6,3.72A6.35,6.35,0,0,1,226.75,17.08Z"/><path class="cls-23" d="M241.21,17.08h-.31a17.6,17.6,0,0,1,.47-3,24.94,24.94,0,0,0,.47-2.5,2,2,0,0,0-.46-1.16l-.15-.2,0-.21a11.76,11.76,0,0,1,2.86-.25,1.84,1.84,0,0,1,.23,1,4.33,4.33,0,0,1,2.43-1.11,1.19,1.19,0,0,1,1,.41,1.53,1.53,0,0,1,.36,1,10.42,10.42,0,0,1-.38,2.14,10.6,10.6,0,0,0-.38,2q0,.52.13.52a3,3,0,0,0,.69-.31l.2-.1.3.58-.4.33a5.9,5.9,0,0,1-.92.54,2.71,2.71,0,0,1-1.2.34q-1.21,0-1.21-1.37a11.15,11.15,0,0,1,.37-2.13,11.69,11.69,0,0,0,.37-2q0-.45-.28-.45a2.43,2.43,0,0,0-1.17.41q0,.28-.33,1.49a19.72,19.72,0,0,0-.58,3.67A6.35,6.35,0,0,1,241.21,17.08Z"/><text></text><circle class="cls-24" cx="555.97" cy="637.73" r="8"/><path class="cls-25" d="M558,638h-1.44v5.28h-2.14V638h-1v-1.71h1v-1.21a2,2,0,0,1,2.12-2.22h1.59v1.85H557c-.18,0-.44.1-.44.52v.91h1.63Z"/><circle class="cls-26" cx="580.87" cy="637.32" r="8"/><path class="cls-27" d="M584.58,633.47a13.47,13.47,0,0,1-3,0c-1.4-.11-3.45-.75-4.2.54-1.21,2.07-.61,4.72-.33,7.06l4.21,4.21a8,8,0,0,0,7.56-7.56Z"/><path class="cls-25" d="M582.74,632.73H579a2.73,2.73,0,0,0-2.73,2.73v3.7a2.73,2.73,0,0,0,2.73,2.73h3.7a2.73,2.73,0,0,0,2.73-2.73v-3.7a2.73,2.73,0,0,0-2.73-2.73Zm1.79,6.44a1.81,1.81,0,0,1-1.81,1.81H579a1.81,1.81,0,0,1-1.81-1.81v-3.7a1.81,1.81,0,0,1,1.81-1.81h3.7a1.81,1.81,0,0,1,1.81,1.81v3.7Z"/><path class="cls-25" d="M580.87,635a2.37,2.37,0,1,0,2.37,2.37,2.37,2.37,0,0,0-2.37-2.37Zm0,3.82a1.45,1.45,0,1,1,1.45-1.45,1.45,1.45,0,0,1-1.45,1.45Z"/><path class="cls-28" d="M583.81,635a.57.57,0,1,1-.57-.57.57.57,0,0,1,.57.57Z"/><path class="cls-28" d="M582.71,632.73h-1.87v.94h1.88a1.81,1.81,0,0,1,1.81,1.81v3.7a1.81,1.81,0,0,1-1.81,1.81h-1.88v.91h1.87a2.73,2.73,0,0,0,2.73-2.73v-3.7A2.73,2.73,0,0,0,582.71,632.73Z"/><path class="cls-28" d="M580.84,635h0v.92h0a1.45,1.45,0,0,1,0,2.89h0v.92h0a2.37,2.37,0,1,0,0-4.74Z"/><circle class="cls-29" cx="605.38" cy="637.18" r="8"/><path class="cls-30" d="M610.32,634.93a3.82,3.82,0,0,1-1.1.3,1.92,1.92,0,0,0,.84-1.06,3.83,3.83,0,0,1-1.21.46,1.91,1.91,0,0,0-3.26,1.74,5.43,5.43,0,0,1-3.94-2,1.91,1.91,0,0,0,.59,2.55,1.9,1.9,0,0,1-.87-.24v0a1.91,1.91,0,0,0,1.53,1.87,1.92,1.92,0,0,1-.86,0,1.91,1.91,0,0,0,1.79,1.33,3.84,3.84,0,0,1-2.38.82l-.46,0a5.44,5.44,0,0,0,8.37-4.58c0-.08,0-.17,0-.25a3.88,3.88,0,0,0,1-1Z"/><text class="cls-14" transform="translate(264.21 643)">Also, a<tspan class="cls-31" x="41.86" y="0">v</tspan><tspan x="48.16" y="0" xml:space="preserve">ailable on  </tspan></text><path class="cls-32" d="M381.6,631.32a1.53,1.53,0,0,0-.06.44v13.34a1.56,1.56,0,0,0,.06.43l7.64-7.09Z"/><path class="cls-33" d="M392.23,635.66l-8.92-4.86a1.33,1.33,0,0,0-1-.19l7.67,7.14Z"/><path class="cls-34" d="M395.51,637.45l-2.38-1.3-2.44,2.26,2.48,2.31,2.32-1.25A1.09,1.09,0,0,0,395.51,637.45Z"/><path class="cls-35" d="M382.28,646.23a1.32,1.32,0,0,0,1-.18l8.95-4.81L390,639.1Z"/><path class="cls-36" d="M413.51,630.66a7.36,7.36,0,1,0,7.36,7.36A7.36,7.36,0,0,0,413.51,630.66Zm0,13.34a6,6,0,1,1,6-6A6,6,0,0,1,413.51,644Zm0-8a.2.2,0,0,0-.07-.27l-.5-.29a.19.19,0,0,0-.26.07l-.76,1.35-.84,1.49-.7,1.24a.2.2,0,0,0,.07.26l.5.29a.19.19,0,0,0,.26-.07l1-1.72.63-1.11Zm-.39,1.61-.76,1.36H415l-.68-1.36Zm-2.22,0h-1a.46.46,0,0,0-.46.46v.44a.46.46,0,0,0,.46.46h.21Zm-.13,2.76-.5-.29a.12.12,0,0,0-.19.1l-.09.76c0,.11,0,.14.14.08l.64-.44A.11.11,0,0,0,410.74,640.32Zm5.44-2v0l-.31-.61h0l0-.07,0-.05,0,0,0-.08v0l0-.09v0c-.35-.67-.79-1.5-1.06-1.94-.48-.76-1.11-2-1.29-1.94s.52,1.74.78,2.35a22.25,22.25,0,0,0,1.45,3,.38.38,0,0,0,.41,0C416.07,638.74,416.31,638.55,416.19,638.33Zm1-.76h-1l.78,1.36h.18a.46.46,0,0,0,.46-.46V638A.46.46,0,0,0,417.21,637.56Zm-.46,2-.24-.46a.21.21,0,0,0-.28-.09l-.29.15a.19.19,0,0,0-.07.28l.3.48a.21.21,0,0,0,.29.07l.2-.12A.23.23,0,0,0,416.76,639.52Zm-.07.67a.36.36,0,0,0,0,.54c.21.31.69.32.76.52C417.4,641.25,417.55,639.7,416.68,640.19Z"/><text class="cls-14" transform="translate(468.46 642)"><tspan class="cls-37">F</tspan><tspan x="7.42" y="0">oll</tspan><tspan class="cls-38" x="21.21" y="0">o</tspan><tspan x="28.6" y="0">w us on</tspan></text></g></g></g></svg>