<?xml version="1.0" encoding="iso-8859-1"?>
<!-- Generator: Adobe Illustrator 16.0.0, SVG Export Plug-In . SVG Version: 6.00 Build 0)  -->
<!DOCTYPE svg PUBLIC "-//W3C//DTD SVG 1.1//EN" "http://www.w3.org/Graphics/SVG/1.1/DTD/svg11.dtd">
<svg version="1.1" id="Capa_1" xmlns="http://www.w3.org/2000/svg" xmlns:xlink="http://www.w3.org/1999/xlink" x="0px" y="0px"
	 width="30px" height="30px" viewBox="0 0 30 30" style="enable-background:new 0 0 30 30;" xml:space="preserve"
	>
<defs>
<style>.cls-1{fill:#525f67;}
</style></defs>
<g id="Layer_2" data-name="Layer 2">
<path class="cls-1" d="M27.71,8.75H2.29a1.07,1.07,0,0,0-.81.37,1.25,1.25,0,0,0-.34.88V28.75a1.25,1.25,0,0,0,.34.88,1.07,1.07,0,0,0,.81.37H27.71a1.07,1.07,0,0,0,.81-.37,1.25,1.25,0,0,0,.34-.88V10a1.25,1.25,0,0,0-.34-.88A1.07,1.07,0,0,0,27.71,8.75Zm-9.54,5.91a1.08,1.08,0,0,1-.82.38H12.67a1.08,1.08,0,0,1-.82-.38,1.31,1.31,0,0,1,0-1.78,1.08,1.08,0,0,1,.82-.38h4.67a1.08,1.08,0,0,1,.82.38,1.31,1.31,0,0,1,0,1.78Z"/>
<path class="cls-1" d="M29.66.37A1.07,1.07,0,0,0,28.85,0H1.15A1.07,1.07,0,0,0,.34.37,1.26,1.26,0,0,0,0,1.25v5a1.26,1.26,0,0,0,.34.88,1.07,1.07,0,0,0,.81.37H28.85a1.07,1.07,0,0,0,.81-.37A1.26,1.26,0,0,0,30,6.26v-5A1.26,1.26,0,0,0,29.66.37Z"/>
</g>
</svg>