<svg xmlns="http://www.w3.org/2000/svg" xmlns:xlink="http://www.w3.org/1999/xlink" viewBox="0 0 111.51 111.51"><defs><style>.cls-1{fill:url(#linear-gradient);}.cls-2{fill:#f1f2f2;}</style><linearGradient id="linear-gradient" x1="1.94" y1="80.3" x2="94.82" y2="37.94" gradientUnits="userSpaceOnUse"><stop offset="0" stop-color="#28c3e8"/><stop offset="1" stop-color="#68c4a8"/></linearGradient></defs><title>Asset 1</title><g id="Layer_2" data-name="Layer 2"><g id="Layer_1-2" data-name="Layer 1"><rect class="cls-1" width="111.51" height="111.51" rx="55.76" ry="55.76"/><path class="cls-2" d="M51.1,26.08l16.43.5,8.64-.17a17.82,17.82,0,0,1,.25,3.35,5.52,5.52,0,0,1-.63,3,2.4,2.4,0,0,1-2.14.92q-1.51,0-6.41-.42T60,32.87L57,33q-.34,3.19-4,20.37,6.37-.59,10.65-.59a25.37,25.37,0,0,1,6.62.67,14.15,14.15,0,0,1-1.51,6,42.26,42.26,0,0,0-8.55-.75,59.12,59.12,0,0,0-8.38.5q-3.1,15.18-3.1,23.06v1.43q-3,1.68-12.74,1.68h-.84q0-5.7,3.9-23.73T43.73,35.8a8.25,8.25,0,0,0-.84-3.23,14.57,14.57,0,0,0-1.76-3.06l-.84-1.17.25-1.26A57.59,57.59,0,0,1,51.1,26.08Z"/></g></g></svg>